<?xml version="1.0" encoding="iso-8859-1"?>
<!-- Generator: Adobe Illustrator 19.0.0, SVG Export Plug-In . SVG Version: 6.00 Build 0)  -->
<svg version="1.1" id="Capa_1" xmlns="http://www.w3.org/2000/svg" xmlns:xlink="http://www.w3.org/1999/xlink" x="0px" y="0px"
	 viewBox="0 0 512 512" style="enable-background:new 0 0 512 512;" xml:space="preserve">
<g>
	<path style="fill:#A0E557;" d="M256,120.333c-11.046,0-20-8.212-20-18.343V28.343C236,18.212,244.954,10,256,10
		c11.046,0,20,8.212,20,18.343v73.648C276,112.121,267.046,120.333,256,120.333z"/>
	<path style="fill:#A0E557;" d="M120.333,256c0,11.046-8.212,20-18.343,20H28.343C18.212,276,10,267.046,10,256s8.212-20,18.343-20
		h73.648C112.121,236,120.333,244.954,120.333,256z"/>
	<path style="fill:#A0E557;" d="M256,391.667c11.046,0,20,8.212,20,18.343v73.648c0,10.131-8.954,18.343-20,18.343
		s-20-8.212-20-18.343V410.01C236,399.879,244.954,391.667,256,391.667z"/>
	<path style="fill:#A0E557;" d="M391.667,256c0-11.046,8.212-20,18.343-20h73.648c10.131,0,18.343,8.954,18.343,20
		c0,11.046-8.212,20-18.343,20H410.01C399.879,276,391.667,267.046,391.667,256z"/>
</g>
<path style="fill:#898998;" d="M226.688,221.441v-12.643c0-16.072,13.029-29.1,29.1-29.1l0,0c16.072,0,29.1,13.029,29.1,29.1v12.395
	L226.688,221.441z"/>
<path style="fill:#FF5D5D;" d="M310.518,294.897v-29.206c0-26.851-21.767-48.617-48.617-48.617H250.1
	c-26.851,0-48.617,21.767-48.617,48.617v29.206c0,26.851,21.767,48.617,48.617,48.617h11.801
	C288.751,343.514,310.518,321.748,310.518,294.897z"/>
<path d="M256,130.333c16.542,0,30-12.714,30-28.343V28.343C286,12.714,272.542,0,256,0s-30,12.714-30,28.343v73.647
	C226,117.619,239.458,130.333,256,130.333z M246,28.343c0-4.6,4.486-8.343,10-8.343s10,3.743,10,8.343v73.647
	c0,4.6-4.486,8.343-10,8.343s-10-3.743-10-8.343V28.343z"/>
<path d="M130.333,256c0-16.542-12.715-30-28.343-30H28.343C12.715,226,0,239.458,0,256s12.715,30,28.343,30h73.647
	C117.618,286,130.333,272.542,130.333,256z M20,256c0-5.514,3.742-10,8.343-10h73.647c4.601,0,8.343,4.486,8.343,10
	s-3.742,10-8.343,10H28.343C23.742,266,20,261.514,20,256z"/>
<path d="M256,381.667c-16.542,0-30,12.714-30,28.343v73.647C226,499.286,239.458,512,256,512s30-12.714,30-28.343V410.01
	C286,394.381,272.542,381.667,256,381.667z M266,483.657c0,4.6-4.486,8.343-10,8.343s-10-3.743-10-8.343V410.01
	c0-4.6,4.486-8.343,10-8.343s10,3.743,10,8.343V483.657z"/>
<path d="M483.657,226H410.01c-15.628,0-28.343,13.458-28.343,30s12.715,30,28.343,30h73.647C499.285,286,512,272.542,512,256
	S499.285,226,483.657,226z M483.657,266H410.01c-4.601,0-8.343-4.486-8.343-10s3.742-10,8.343-10h73.647
	c4.601,0,8.343,4.486,8.343,10S488.258,266,483.657,266z"/>
<path d="M70.738,205.011c1.048,0.349,2.111,0.514,3.158,0.514c4.188,0,8.092-2.654,9.487-6.847
	c7.813-23.487,20.592-45.408,37.203-63.95l10.961,10.961c1.953,1.953,4.512,2.929,7.071,2.929s5.118-0.977,7.071-2.929
	c3.905-3.905,3.905-10.237,0-14.142l-10.961-10.961c18.538-16.608,40.46-29.39,63.949-37.203c5.24-1.743,8.076-7.405,6.333-12.645
	s-7.407-8.075-12.646-6.333c-26.425,8.79-51.052,23.244-71.791,42.027L108.92,94.779c-3.906-3.905-10.236-3.905-14.143,0
	c-3.905,3.905-3.905,10.237,0,14.142l11.654,11.654c-18.786,20.743-33.238,45.368-42.028,71.791
	C62.662,197.606,65.498,203.268,70.738,205.011z"/>
<path d="M83.508,313.693l-0.126-0.377c-1.747-5.239-7.411-8.071-12.649-6.325c-5.239,1.747-8.071,7.41-6.325,12.649l0.126,0.377
	c1.397,4.191,5.299,6.841,9.486,6.841c1.048,0,2.114-0.167,3.163-0.516C82.422,324.595,85.254,318.932,83.508,313.693z"/>
<path d="M198.679,428.617c-23.487-7.813-45.407-20.593-63.949-37.203l10.961-10.961c3.905-3.905,3.905-10.237,0-14.142
	s-10.235-3.905-14.143,0l-10.957,10.956c-8.016-8.935-15.15-18.631-21.251-28.947c-2.813-4.753-8.942-6.327-13.698-3.517
	c-4.754,2.812-6.328,8.944-3.517,13.698c6.955,11.76,15.123,22.789,24.31,32.922l-11.656,11.656c-3.905,3.905-3.905,10.237,0,14.142
	c1.953,1.953,4.512,2.929,7.071,2.929s5.118-0.977,7.071-2.929l11.653-11.653c20.743,18.785,45.368,33.238,71.791,42.027
	c1.048,0.349,2.111,0.514,3.157,0.514c4.189,0,8.093-2.654,9.488-6.847C206.755,436.021,203.919,430.36,198.679,428.617z"/>
<path d="M441.262,306.989c-5.237-1.744-10.9,1.092-12.646,6.333c-7.813,23.487-20.592,45.408-37.203,63.95l-10.961-10.961
	c-3.906-3.905-10.236-3.905-14.143,0c-3.905,3.905-3.905,10.237,0,14.142l10.961,10.961c-18.538,16.608-40.46,29.39-63.949,37.203
	c-5.24,1.743-8.076,7.405-6.333,12.645c1.396,4.193,5.299,6.847,9.488,6.847c1.046,0,2.11-0.166,3.157-0.514
	c26.425-8.79,51.052-23.244,71.791-42.027l11.653,11.653c1.953,1.953,4.512,2.929,7.071,2.929s5.118-0.977,7.071-2.929
	c3.905-3.905,3.905-10.237,0-14.142l-11.654-11.654c18.786-20.743,33.238-45.368,42.028-71.791
	C449.338,314.394,446.502,308.732,441.262,306.989z"/>
<path d="M428.625,198.704c1.4,4.176,5.295,6.821,9.479,6.821c1.032,0,2.083-0.162,3.117-0.5c5.248-1.721,8.107-7.37,6.387-12.618
	c-0.035-0.109-0.104-0.307-0.144-0.416c-1.9-5.185-7.641-7.848-12.831-5.946C429.505,187.925,426.845,193.564,428.625,198.704z"/>
<path d="M313.321,83.383c23.487,7.813,45.407,20.593,63.949,37.203l-10.961,10.961c-3.905,3.905-3.905,10.237,0,14.142
	c1.953,1.953,4.512,2.929,7.071,2.929c2.559,0,5.118-0.977,7.071-2.929l10.965-10.964c7.093,7.908,13.5,16.427,19.104,25.43
	c1.895,3.044,5.158,4.717,8.499,4.717c1.804,0,3.631-0.488,5.275-1.512c4.688-2.918,6.123-9.085,3.204-13.774
	c-6.41-10.297-13.772-20.017-21.93-29.014l11.65-11.65c3.905-3.905,3.905-10.237,0-14.142c-3.904-3.905-10.234-3.905-14.143,0
	l-11.653,11.653c-20.743-18.785-45.368-33.238-71.791-42.027c-5.238-1.743-10.901,1.092-12.646,6.333
	C305.245,75.979,308.081,81.64,313.321,83.383z"/>
<path d="M319.384,329.606V361c0,5.523,4.478,10,10,10s10-4.477,10-10v-35.536c0-2.652-1.054-5.196-2.929-7.071l-16.384-16.385
	c0.284-2.333,0.447-4.703,0.447-7.111v-14.35h32.549c5.522,0,10-4.477,10-10s-4.478-10-10-10h-32.788
	c-0.534-6.113-2.001-11.961-4.274-17.396l20.451-20.45c1.875-1.875,2.929-4.419,2.929-7.071v-28.214c0-5.523-4.478-10-10-10
	s-10,4.477-10,10v24.072l-14.454,14.453c-3.007-3.252-6.374-6.166-10.042-8.673v-8.471c0-11.532-5.021-21.911-12.989-29.073
	c7.853-7.087,12.797-17.338,12.797-28.724c0-5.523-4.478-10-10-10s-10,4.477-10,10c0,10.31-8.388,18.697-18.697,18.697
	S237.303,161.31,237.303,151c0-5.523-4.478-10-10-10s-10,4.477-10,10c0,11.286,4.858,21.456,12.59,28.536
	c-8.091,7.169-13.206,17.626-13.206,29.261v8.772c-3.502,2.439-6.728,5.246-9.618,8.371l-14.454-14.453v-24.072
	c0-5.523-4.478-10-10-10s-10,4.477-10,10v28.214c0,2.652,1.054,5.196,2.929,7.071l20.451,20.45
	c-2.272,5.435-3.74,11.283-4.274,17.396h-32.788c-5.522,0-10,4.477-10,10s4.478,10,10,10h32.549v14.35
	c0,2.409,0.163,4.778,0.447,7.112l-16.384,16.384c-1.875,1.875-2.929,4.419-2.929,7.071V361c0,5.523,4.478,10,10,10s10-4.477,10-10
	v-31.394l6.258-6.258c10.024,17.976,29.224,30.166,51.225,30.166H261.9c22.001,0,41.201-12.191,51.225-30.167L319.384,329.606z
	 M255.788,189.697c10.445,0,18.948,8.43,19.087,18.842c-4.177-0.948-8.516-1.465-12.975-1.465h-11.8
	c-4.612,0-9.096,0.552-13.404,1.565C236.782,198.181,245.31,189.697,255.788,189.697z M300.518,294.897
	c0,21.293-17.323,38.617-38.617,38.617H250.1c-21.294,0-38.617-17.324-38.617-38.617v-29.206c0-19.909,15.145-36.343,34.518-38.397
	V256c0,5.523,4.478,10,10,10s10-4.477,10-10v-28.706c19.373,2.054,34.518,18.489,34.518,38.397v29.206H300.518z"/>
<path d="M256,283.89c-2.63,0-5.21,1.07-7.07,2.93s-2.93,4.44-2.93,7.07s1.069,5.2,2.93,7.07c1.86,1.86,4.44,2.93,7.07,2.93
	s5.21-1.07,7.069-2.93c1.86-1.86,2.931-4.44,2.931-7.07s-1.07-5.21-2.931-7.07C261.21,284.96,258.63,283.89,256,283.89z"/>
<g>
</g>
<g>
</g>
<g>
</g>
<g>
</g>
<g>
</g>
<g>
</g>
<g>
</g>
<g>
</g>
<g>
</g>
<g>
</g>
<g>
</g>
<g>
</g>
<g>
</g>
<g>
</g>
<g>
</g>
</svg>
