<?xml version="1.0" encoding="iso-8859-1"?>
<!-- Generator: Adobe Illustrator 19.0.0, SVG Export Plug-In . SVG Version: 6.00 Build 0)  -->
<svg version="1.1" id="Capa_1" xmlns="http://www.w3.org/2000/svg" xmlns:xlink="http://www.w3.org/1999/xlink" x="0px" y="0px"
	 viewBox="0 0 512 512" style="enable-background:new 0 0 512 512;" xml:space="preserve">
<g>
	<circle style="fill:#46F8FF;" cx="256" cy="256" r="213.333"/>
	<path style="fill:#46F8FF;" d="M256,10.667C120.506,10.667,10.667,120.506,10.667,256S120.506,501.333,256,501.333
		S501.333,391.494,501.333,256S391.494,10.667,256,10.667z M106.667,362.667L256,85.333l149.333,277.333H106.667z"/>
</g>
<path style="fill:#FF6243;" d="M256,85.333L106.667,362.667h298.667L256,85.333z"/>
<path d="M256,512C114.615,512,0,397.385,0,256S114.615,0,256,0s256,114.615,256,256C511.835,397.317,397.317,511.835,256,512z
	 M256,21.333C126.397,21.333,21.333,126.397,21.333,256S126.397,490.667,256,490.667S490.667,385.603,490.667,256
	C490.52,126.458,385.542,21.48,256,21.333z"/>
<path d="M405.333,373.333H106.667c-5.891,0.003-10.669-4.771-10.672-10.662c-0.001-1.767,0.437-3.506,1.274-5.061L246.603,80.277
	c3.278-5.19,10.142-6.74,15.332-3.462c1.397,0.882,2.58,2.065,3.462,3.462l149.333,277.333c2.792,5.187,0.851,11.656-4.336,14.448
	C408.839,372.896,407.1,373.334,405.333,373.333L405.333,373.333z M124.523,352h262.955L256,107.829L124.523,352z"/>
<path d="M245.333,181.333h21.333V288h-21.333V181.333z"/>
<path d="M245.333,309.333h21.333v21.333h-21.333V309.333z"/>
<g>
</g>
<g>
</g>
<g>
</g>
<g>
</g>
<g>
</g>
<g>
</g>
<g>
</g>
<g>
</g>
<g>
</g>
<g>
</g>
<g>
</g>
<g>
</g>
<g>
</g>
<g>
</g>
<g>
</g>
</svg>
