<svg xmlns="http://www.w3.org/2000/svg" xmlns:xlink="http://www.w3.org/1999/xlink" version="1.1" id="Capa_1" x="0px" y="0px" viewBox="0 0 512 512" style="enable-background:new 0 0 512 512;" xml:space="preserve" width="512" height="512" class=""><g><circle style="fill:#FF5D5D" cx="256" cy="256" r="245.333" data-original="#FFEB99" class="active-path" data-old_color="#FFEB99"></circle><path d="M256,0C114.615,0,0,114.615,0,256s114.615,256,256,256s256-114.615,256-256C511.835,114.683,397.317,0.165,256,0z   M256,490.667C126.397,490.667,21.333,385.603,21.333,256S126.397,21.333,256,21.333S490.667,126.397,490.667,256  C490.52,385.542,385.542,490.52,256,490.667z" data-original="#000000" class="" style="fill:#000000"></path><path d="M376.683,120.235L256,240.917L135.317,120.235l-15.083,15.093L240.917,256L120.235,376.672l15.083,15.093L256,271.083  l120.683,120.683l15.083-15.093L271.083,256l120.683-120.672L376.683,120.235z" data-original="#000000" class="" style="fill:#000000"></path></g> </svg>