<?xml version="1.0" encoding="iso-8859-1"?>
<!-- Generator: Adobe Illustrator 19.0.0, SVG Export Plug-In . SVG Version: 6.00 Build 0)  -->
<svg version="1.1" id="Capa_1" xmlns="http://www.w3.org/2000/svg" xmlns:xlink="http://www.w3.org/1999/xlink" x="0px" y="0px"
	 viewBox="0 0 512 512" style="enable-background:new 0 0 512 512;" xml:space="preserve">
<circle style="fill:#F072AE;" cx="256" cy="256" r="245.333"/>
<path d="M256,0C114.615,0,0,114.615,0,256s114.615,256,256,256s256-114.615,256-256C511.835,114.683,397.317,0.165,256,0z
	 M256,490.667C126.397,490.667,21.333,385.603,21.333,256S126.397,21.333,256,21.333S490.667,126.397,490.667,256
	C490.52,385.542,385.542,490.52,256,490.667z"/>
<path d="M259.019,74.667c-58.887-1.667-107.975,44.718-109.643,103.605c-0.029,1.02-0.043,2.041-0.043,3.061h21.333
	c-0.079-23.056,9.251-45.145,25.835-61.163c16.421-16.262,38.835-25.01,61.931-24.171c45.037,1.759,81.143,37.865,82.901,82.901
	c1.217,37.569-22.411,71.468-58.08,83.328c-22.302,7.087-37.573,27.642-37.92,51.04v81.397h21.333v-81.397
	c0.235-14.263,9.682-26.731,23.349-30.816c44.595-14.803,74.151-57.164,72.651-104.128
	C360.471,122.015,315.329,76.868,259.019,74.667L259.019,74.667z"/>
<path d="M245.333,416h21.333v21.333h-21.333V416z"/>
<g>
</g>
<g>
</g>
<g>
</g>
<g>
</g>
<g>
</g>
<g>
</g>
<g>
</g>
<g>
</g>
<g>
</g>
<g>
</g>
<g>
</g>
<g>
</g>
<g>
</g>
<g>
</g>
<g>
</g>
</svg>
