<svg xmlns="http://www.w3.org/2000/svg" xmlns:xlink="http://www.w3.org/1999/xlink" version="1.1" id="Capa_1" x="0px" y="0px" viewBox="0 0 512 512" style="enable-background:new 0 0 512 512;" xml:space="preserve" width="512" height="512" class=""><g><circle style="fill:#A0E557" cx="256" cy="256" r="245.333" data-original="#FFB655" class="active-path" data-old_color="#FFB655"></circle><path d="M256,512C114.615,512,0,397.385,0,256S114.615,0,256,0s256,114.615,256,256C511.835,397.317,397.317,511.835,256,512z   M256,21.333C126.397,21.333,21.333,126.397,21.333,256S126.397,490.667,256,490.667S490.667,385.603,490.667,256  C490.52,126.458,385.542,21.48,256,21.333z" data-original="#000000" class="" style="fill:#000000"></path><path d="M160,394.667c-2.829-0.001-5.541-1.125-7.541-3.125l-75.424-75.424l15.083-15.083L160,368.917l237.792-237.792  l15.083,15.083L167.541,391.541C165.541,393.542,162.829,394.666,160,394.667L160,394.667z" data-original="#000000" class="" style="fill:#000000"></path></g> </svg>