<?xml version="1.0" encoding="iso-8859-1"?>
<!-- Generator: Adobe Illustrator 19.0.0, SVG Export Plug-In . SVG Version: 6.00 Build 0)  -->
<svg version="1.1" id="Capa_1" xmlns="http://www.w3.org/2000/svg" xmlns:xlink="http://www.w3.org/1999/xlink" x="0px" y="0px"
	 viewBox="0 0 512 512" style="enable-background:new 0 0 512 512;" xml:space="preserve">
<circle style="fill:#D5B4EB;" cx="256" cy="256" r="245.333"/>
<g>
	<path style="fill:#44FFE8;" d="M149.333,160v234.667c0,11.782,9.551,21.333,21.333,21.333h170.667
		c11.782,0,21.333-9.551,21.333-21.333V160H149.333z"/>
	<path style="fill:#44FFE8;" d="M234.667,85.333h42.667V128h-42.667V85.333z"/>
</g>
<path d="M256,0C114.615,0,0,114.615,0,256s114.615,256,256,256s256-114.615,256-256C511.835,114.683,397.317,0.165,256,0z
	 M256,490.667C126.397,490.667,21.333,385.603,21.333,256S126.397,21.333,256,21.333S490.667,126.397,490.667,256
	C490.52,385.542,385.542,490.52,256,490.667z"/>
<path d="M362.667,149.333H149.333c-5.891,0-10.667,4.776-10.667,10.667v234.667c0,17.673,14.327,32,32,32h170.667
	c17.673,0,32-14.327,32-32V160C373.333,154.109,368.558,149.333,362.667,149.333z M352,394.667c0,5.891-4.776,10.667-10.667,10.667
	H170.667c-5.891,0-10.667-4.776-10.667-10.667v-224h192V394.667z"/>
<path d="M288,85.333c0-5.891-4.776-10.667-10.667-10.667h-42.667c-5.891,0-10.667,4.776-10.667,10.667v32H117.333v21.333h277.333
	v-21.333H288V85.333z M245.333,117.333V96h21.333v21.333H245.333z"/>
<path d="M192,192h21.333v192H192V192z"/>
<path d="M245.333,192h21.333v192h-21.333V192z"/>
<path d="M298.667,192H320v192h-21.333V192z"/>
<g>
</g>
<g>
</g>
<g>
</g>
<g>
</g>
<g>
</g>
<g>
</g>
<g>
</g>
<g>
</g>
<g>
</g>
<g>
</g>
<g>
</g>
<g>
</g>
<g>
</g>
<g>
</g>
<g>
</g>
</svg>
