<svg height="512pt" viewBox="0 0 512.00072 512" width="512pt" xmlns="http://www.w3.org/2000/svg"><path d="m448 218.246094v235.753906h-384v-235.753906l192-130.113282zm0 0" fill="#fff"/><path d="m280.128906 170c0 13.253906-10.746094 24-24 24-13.257812 0-24-10.746094-24-24s10.742188-24 24-24c13.253906 0 24 10.746094 24 24zm0 0" fill="#ffc15a"/><path d="m172 238h168v168h-168zm0 0" fill="#ffd89e"/><path d="m465.714844 230.25-209.714844-142.117188-209.714844 142.117188-36.285156-53.542969 246-166.707031 246 166.707031zm0 0" fill="#f5737f"/><path d="m128 96.832031-64 42.875v-89.707031h64zm0 0" fill="#b5bcc9"/><path d="m137.5 50h-83c-4.691406 0-8.5-3.804688-8.5-8.5v-23c0-4.691406 3.808594-8.5 8.5-8.5h83c4.695312 0 8.5 3.808594 8.5 8.5v23c0 4.695312-3.804688 8.5-8.5 8.5zm0 0" fill="#d3d7df"/><path d="m30 454h452v48h-452zm0 0" fill="#b5bcc9"/><path d="m458 237.101562 2.105469 1.425782c1.667969 1.128906 3.625 1.722656 5.609375 1.722656.628906 0 1.261718-.058594 1.886718-.179688 2.605469-.5 4.90625-2.015624 6.394532-4.210937l36.28125-53.542969c3.097656-4.570312 1.902344-10.789062-2.667969-13.886718l-246-166.707032c-3.386719-2.296875-7.832031-2.296875-11.21875 0l-112.390625 76.164063v-17.910157c9.96875-.269531 18-8.445312 18-18.476562v-23c0-10.199219-8.296875-18.5-18.5-18.5h-82.996094c-10.203125 0-18.5 8.300781-18.5 18.5v23c0 10.03125 8.03125 18.207031 18 18.476562v74.835938l-49.613281 33.617188c-4.570313 3.097656-5.765625 9.316406-2.667969 13.886718l36.285156 53.542969c1.488282 2.195313 3.785157 3.710937 6.390626 4.210937 2.605468.5 5.300781-.054687 7.496093-1.542968l2.109375-1.425782v206.898438h-24c-5.523437 0-10 4.476562-10 10v48c0 5.523438 4.476563 10 10 10h451.996094c5.523438 0 10-4.476562 10-10v-48c0-5.523438-4.476562-10-10-10h-24v-58.394531c0-5.523438-4.476562-10-10-10s-10 4.476562-10 10v58.394531h-364v-216.792969c0-1.148437-.203125-2.25-.558594-3.277343l182.558594-123.71875 182.5625 123.71875c-.359375 1.027343-.5625 2.128906-.5625 3.277343v68.398438c0 5.523437 4.476562 10 10 10s10-4.476563 10-10zm14 254.898438h-432v-28h432zm-416-472h80v20h-80zm18 40h44v31.441406l-44 29.816406zm182 18.132812c-1.957031 0-3.914062.574219-5.609375 1.722657l-201.4375 136.507812-25.0625-36.988281 108.699219-73.660156c.699218-.363282 1.347656-.804688 1.9375-1.316406l121.472656-82.316407 232.109375 157.292969-25.0625 36.988281-201.4375-136.507812c-1.691406-1.148438-3.652344-1.722657-5.609375-1.722657zm0 0"/><path d="m162 238v168c0 5.523438 4.476562 10 10 10h168c5.523438 0 10-4.476562 10-10v-168c0-5.523438-4.476562-10-10-10h-168c-5.523438 0-10 4.476562-10 10zm20 94h64v64h-64zm84 64v-64h64v64zm64-84h-64v-64h64zm-84-64v64h-64v-64zm0 0"/><path d="m290.128906 170c0-18.746094-15.253906-34-34-34-18.75 0-34 15.253906-34 34 0 18.75 15.25 34 34 34 18.746094 0 34-15.25 34-34zm-48 0c0-7.71875 6.277344-14 14-14 7.71875 0 14 6.28125 14 14s-6.28125 14-14 14c-7.722656 0-14-6.28125-14-14zm0 0"/><path d="m448 330.601562c-2.628906 0-5.210938 1.070313-7.070312 2.929688-1.859376 1.859375-2.929688 4.4375-2.929688 7.070312 0 2.636719 1.070312 5.207032 2.929688 7.070313 1.859374 1.867187 4.441406 2.929687 7.070312 2.929687s5.210938-1.0625 7.070312-2.929687c1.859376-1.863281 2.929688-4.433594 2.929688-7.070313 0-2.632812-1.070312-5.203124-2.929688-7.070312-1.859374-1.859375-4.441406-2.929688-7.070312-2.929688zm0 0"/></svg>