<?xml version="1.0" encoding="iso-8859-1"?>
<!-- Generator: Adobe Illustrator 21.0.0, SVG Export Plug-In . SVG Version: 6.00 Build 0)  -->
<svg version="1.1" id="Capa_1" xmlns="http://www.w3.org/2000/svg" xmlns:xlink="http://www.w3.org/1999/xlink" x="0px" y="0px"
	 viewBox="0 0 512 512" style="enable-background:new 0 0 512 512;" xml:space="preserve">
<g>
	<g transform="translate(1 1)">
		<g>
			<path style="fill:#E91E63;" d="M255,24.6C127.754,24.6,24.6,127.754,24.6,255S127.754,485.4,255,485.4S485.4,382.246,485.4,255
				c0-61.106-24.274-119.709-67.483-162.917C374.709,48.874,316.106,24.6,255,24.6z M255,451.267
				c-108.395,0-196.267-87.872-196.267-196.267S146.605,58.733,255,58.733S451.267,146.605,451.267,255
				C451.13,363.339,363.339,451.13,255,451.267z"/>
			<path style="fill:#E91E63;" d="M7.533,262.723v-15.445c0-5.161,4.183-9.344,9.344-9.344h83.712c5.161,0,9.344,4.183,9.344,9.344
				v15.445c0,5.161-4.183,9.344-9.344,9.344H16.877C11.717,272.067,7.533,267.883,7.533,262.723z"/>
		</g>
		<g>
			<path style="fill:#558B30;" d="M306.2,212.333v85.333c0.01,24.977-18.033,46.304-42.667,50.432
				c-5.643,1.024-11.424,1.024-17.067,0c-1.441-0.222-2.866-0.536-4.267-0.939c-22.599-5.795-38.402-26.163-38.4-49.493v-85.333
				l8.533-8.533h85.333L306.2,212.333z"/>
			<path style="fill:#558B30;" d="M306.2,212.333H203.8c-0.006-2.862,0.251-5.718,0.768-8.533
				c3.324-19.902,18.082-35.966,37.632-40.96c4.172-1.134,8.477-1.708,12.8-1.707C283.259,161.176,306.158,184.074,306.2,212.333z"
				/>
		</g>
		<g>
			<path style="fill:#8BC34A;" d="M280.6,212.333v85.333c0.002,23.33-15.801,43.699-38.4,49.493
				c-22.599-5.795-38.402-26.163-38.4-49.493v-85.333c-0.006-2.862,0.251-5.718,0.768-8.533h67.499L280.6,212.333z"/>
			<path style="fill:#8BC34A;" d="M280.6,212.333h-76.8c-0.006-2.862,0.251-5.718,0.768-8.533
				c3.324-19.902,18.082-35.966,37.632-40.96c19.546,5,34.302,21.061,37.632,40.96C280.349,206.615,280.606,209.471,280.6,212.333z"
				/>
		</g>
		<path style="fill:#AD1457;" d="M485.4,255c0,127.246-103.154,230.4-230.4,230.4c-4.267,0-8.533-0.085-12.8-0.427
			c122.088-6.737,217.633-107.7,217.633-229.973S364.288,31.764,242.2,25.027c4.267-0.341,8.533-0.427,12.8-0.427
			C382.246,24.6,485.4,127.754,485.4,255z"/>
		<g>
			<path style="fill:#E91E63;" d="M247.277,7.533h15.445c5.161,0,9.344,4.183,9.344,9.344v83.712c0,5.161-4.183,9.344-9.344,9.344
				h-15.445c-5.161,0-9.344-4.183-9.344-9.344V16.877C237.933,11.717,242.117,7.533,247.277,7.533z"/>
			<path style="fill:#E91E63;" d="M247.277,400.067h15.445c5.161,0,9.344,4.183,9.344,9.344v83.712c0,5.161-4.183,9.344-9.344,9.344
				h-15.445c-5.161,0-9.344-4.183-9.344-9.344v-83.712C237.933,404.25,242.117,400.067,247.277,400.067z"/>
		</g>
		<path style="fill:#AD1457;" d="M400.067,262.723v-15.445c0-5.161,4.183-9.344,9.344-9.344h83.712c5.161,0,9.344,4.183,9.344,9.344
			v15.445c0,5.161-4.183,9.344-9.344,9.344h-83.712C404.25,272.067,400.067,267.883,400.067,262.723z"/>
		<path style="fill:#E91E63;" d="M400.067,262.723v-15.445c0-5.161,4.183-9.344,9.344-9.344h58.112c5.161,0,9.344,4.183,9.344,9.344
			v15.445c0,5.161-4.183,9.344-9.344,9.344h-58.112C404.25,272.067,400.067,267.883,400.067,262.723z"/>
	</g>
	<g>
		<path d="M494.123,230.4h-0.657C481.05,118.936,393.064,30.95,281.6,18.534V17.92c0-9.88-7.997-17.896-17.877-17.92H248.32
			c-9.897,0-17.92,8.023-17.92,17.92v0.657C118.951,30.989,30.969,118.953,18.534,230.4H17.92C8.023,230.4,0,238.423,0,248.32
			v15.445c0.047,9.864,8.056,17.835,17.92,17.835h0.657C30.989,393.049,118.953,481.031,230.4,493.466v0.657
			c0.024,9.88,8.04,17.877,17.92,17.877h15.445c9.847-0.047,17.811-8.03,17.835-17.877v-0.657
			C393.064,481.05,481.05,393.064,493.466,281.6h0.657c9.864-0.023,17.854-8.014,17.877-17.877V248.32
			C512,238.44,504.003,230.424,494.123,230.4z M476.109,230.4h-17.135C447.498,137.607,374.393,64.502,281.6,53.026V35.891
			C383.548,48.084,463.916,128.452,476.109,230.4z M410.402,281.6h31.369c-11.26,83.354-76.817,148.915-160.171,160.179v-31.326
			c0-9.88-7.997-17.896-17.877-17.92H248.32c-9.897,0-17.92,8.023-17.92,17.92v31.369C147.03,430.557,81.464,364.973,70.221,281.6
			h31.369c9.864-0.023,17.854-8.014,17.877-17.877V248.32c0-9.88-7.997-17.896-17.877-17.92H70.221
			C81.482,147.043,147.043,81.482,230.4,70.221v31.369c0.024,9.88,8.04,17.877,17.92,17.877h15.445
			c9.847-0.047,17.811-8.03,17.835-17.877V70.221c83.357,11.261,148.918,76.823,160.179,160.179h-31.326
			c-9.897,0-17.92,8.023-17.92,17.92v15.445c0.047,9.864,8.056,17.835,17.92,17.835H410.402z M247.467,17.92
			c-0.015-0.231,0.07-0.457,0.233-0.62c0.163-0.163,0.389-0.248,0.62-0.233h15.445c0.216,0.009,0.419,0.104,0.564,0.265
			c0.145,0.161,0.218,0.373,0.204,0.588v83.712c0.014,0.223-0.065,0.442-0.219,0.604s-0.368,0.252-0.592,0.25H248.32
			c-0.223,0.003-0.438-0.088-0.592-0.25s-0.233-0.381-0.219-0.604L247.467,17.92z M230.4,35.891v17.135
			C137.607,64.502,64.502,137.607,53.026,230.4H35.891C48.084,128.452,128.452,48.084,230.4,35.891z M17.067,263.723V248.32
			c-0.015-0.231,0.07-0.457,0.233-0.62c0.163-0.163,0.389-0.248,0.62-0.233h83.712c0.223-0.014,0.442,0.065,0.604,0.219
			s0.252,0.368,0.25,0.592v15.445c0.003,0.223-0.088,0.438-0.25,0.592s-0.381,0.233-0.604,0.219H17.92
			c-0.223,0.014-0.442-0.065-0.604-0.219S17.064,263.946,17.067,263.723z M35.891,281.6h17.135
			c11.476,92.793,84.58,165.898,177.374,177.374v17.135C128.452,463.916,48.084,383.548,35.891,281.6z M264.533,494.123
			c0.002,0.216-0.082,0.423-0.235,0.576c-0.153,0.153-0.36,0.237-0.576,0.235H248.32c-0.223,0.014-0.442-0.065-0.604-0.219
			s-0.252-0.368-0.25-0.592v-83.669c-0.015-0.231,0.07-0.457,0.233-0.62c0.163-0.163,0.389-0.248,0.62-0.233h15.445
			c0.216,0.009,0.419,0.104,0.564,0.265c0.145,0.161,0.218,0.373,0.204,0.588V494.123z M281.6,476.109v-17.135
			c92.793-11.476,165.898-84.58,177.374-177.374h17.135C463.916,383.548,383.548,463.916,281.6,476.109z M494.933,263.723
			c0.002,0.216-0.082,0.423-0.235,0.576c-0.153,0.153-0.36,0.237-0.576,0.235h-83.669c-0.223,0.014-0.442-0.065-0.604-0.219
			c-0.162-0.154-0.252-0.368-0.25-0.592V248.32c-0.015-0.231,0.07-0.457,0.233-0.62c0.163-0.163,0.389-0.248,0.62-0.233h83.712
			c0.216,0.009,0.419,0.104,0.564,0.265s0.218,0.373,0.204,0.588V263.723z"/>
		<path d="M346.103,234.957c12.656-4.273,19.932-17.526,16.742-30.498l-4.702-18.773c-0.723-2.977-2.986-5.337-5.93-6.185
			c-2.943-0.848-6.116-0.053-8.312,2.082c-2.196,2.136-3.079,5.284-2.313,8.25l4.702,18.773c1.085,4.328-1.347,8.762-5.581,10.172
			l-24.977,8.311v-13.756c-0.01-17.063-7.34-33.301-20.13-44.595l17.63-17.638c3.234-3.348,3.188-8.671-0.104-11.962
			c-3.292-3.292-8.614-3.338-11.962-0.104l-20.139,20.139c-15.858-7.43-34.198-7.43-50.057,0l-20.139-20.139
			c-3.348-3.234-8.671-3.188-11.962,0.104c-3.292,3.292-3.338,8.614-0.104,11.962l17.63,17.638
			c-12.79,11.294-20.12,27.532-20.13,44.595v13.756l-24.977-8.32c-4.23-1.41-6.661-5.838-5.581-10.163l4.702-18.773
			c1.107-4.557-1.67-9.153-6.218-10.292c-4.548-1.139-9.164,1.605-10.336,6.145l-4.702,18.773
			c-3.185,12.967,4.085,26.213,16.734,30.49l30.379,10.138v19.447h-34.133c-4.713,0-8.533,3.82-8.533,8.533s3.821,8.533,8.533,8.533
			h34.133v17.067c0,0.794,0.085,1.562,0.119,2.347l-30.49,10.163c-12.656,4.273-19.932,17.526-16.742,30.498l4.702,18.773
			c0.941,3.807,4.356,6.482,8.277,6.485c0.702,0.003,1.402-0.083,2.082-0.256c4.571-1.145,7.349-5.78,6.204-10.351l-4.702-18.773
			c-1.085-4.328,1.347-8.762,5.581-10.172l28.237-9.387c8.222,24.184,30.93,40.449,56.474,40.449s48.252-16.265,56.474-40.449
			l28.237,9.387c4.23,1.41,6.661,5.838,5.581,10.163l-4.702,18.773c-1.145,4.571,1.632,9.206,6.204,10.351
			c0.675,0.174,1.368,0.263,2.065,0.265c3.911-0.004,7.318-2.666,8.269-6.46l4.702-18.773c3.185-12.967-4.085-26.213-16.734-30.49
			l-30.498-10.163c0-0.785,0.119-1.553,0.119-2.347V281.6h34.133c4.713,0,8.533-3.82,8.533-8.533s-3.82-8.533-8.533-8.533h-34.125
			v-19.447L346.103,234.957z M297.813,204.8h-83.627c4.038-19.885,21.522-34.176,41.813-34.176S293.775,184.915,297.813,204.8z
			 M298.667,298.667c-0.026,20.268-14.281,37.731-34.133,41.813v-75.947c0-4.713-3.821-8.533-8.533-8.533
			c-4.713,0-8.533,3.821-8.533,8.533v75.947c-19.852-4.083-34.108-21.546-34.133-41.813v-76.8h85.333V298.667z"/>
	</g>
</g>
<g>
</g>
<g>
</g>
<g>
</g>
<g>
</g>
<g>
</g>
<g>
</g>
<g>
</g>
<g>
</g>
<g>
</g>
<g>
</g>
<g>
</g>
<g>
</g>
<g>
</g>
<g>
</g>
<g>
</g>
</svg>
