<?xml version="1.0" encoding="iso-8859-1"?>
<!-- Generator: Adobe Illustrator 19.0.0, SVG Export Plug-In . SVG Version: 6.00 Build 0)  -->
<svg version="1.1" id="Capa_1" xmlns="http://www.w3.org/2000/svg" xmlns:xlink="http://www.w3.org/1999/xlink" x="0px" y="0px"
	 viewBox="0 0 512 512" style="enable-background:new 0 0 512 512;" xml:space="preserve">
<path style="fill:#FFC66C;" d="M347.077,311.558l147.694,147.694c9.676,9.676,9.599,25.586-0.17,35.357l0,0
	c-9.77,9.77-25.68,9.846-35.357,0.17L311.55,347.085L347.077,311.558z"/>
<rect x="319.786" y="320.76" transform="matrix(-0.7071 -0.7071 0.7071 -0.7071 344.0302 833.1992)" style="fill:#FFFFFF;" width="49.582" height="49.177"/>
<path style="fill:#4DBAF6;" d="M381.985,195.988c0-102.722-83.267-185.989-185.989-185.989S10.007,93.266,10.007,195.988
	s83.267,185.989,185.989,185.989S381.985,298.71,381.985,195.988z"/>
<circle style="fill:#C9F3FF;" cx="195.998" cy="195.988" r="141.071"/>
<path style="fill:#898998;" d="M167.741,182.068v-12.222c0-15.536,12.595-28.131,28.131-28.131l0,0
	c15.536,0,28.131,12.595,28.131,28.131v11.982L167.741,182.068z"/>
<path style="fill:#FF5D5D;" d="M248.78,253.079v-28.233c0-25.956-21.042-46.998-46.998-46.998h-11.408
	c-25.956,0-46.998,21.042-46.998,46.998v28.233c0,25.956,21.042,46.998,46.998,46.998h11.408
	C227.737,300.077,248.78,279.035,248.78,253.079z"/>
<path d="M388.794,414.333c-2.63,0-5.21,1.07-7.069,2.93c-1.86,1.86-2.931,4.44-2.931,7.07s1.07,5.21,2.931,7.07
	c1.859,1.86,4.439,2.93,7.069,2.93s5.21-1.07,7.07-2.93c1.86-1.86,2.93-4.44,2.93-7.07s-1.069-5.21-2.93-7.07
	C394.003,415.403,391.424,414.333,388.794,414.333z"/>
<path d="M501.841,452.182L357.109,307.448c21.975-31.666,34.875-70.082,34.875-111.46C391.984,87.92,304.064,0,195.996,0
	S0.008,87.92,0.008,195.988s87.92,195.988,195.988,195.988c41.37,0,79.778-12.895,111.441-34.862l50.622,50.622
	c1.953,1.953,4.512,2.929,7.071,2.929s5.118-0.976,7.071-2.929c3.905-3.905,3.905-10.236,0-14.142l-13.333-13.333l21.385-21.386
	L487.7,466.324c5.803,5.802,5.727,15.319-0.17,21.215c-2.85,2.85-6.646,4.43-10.69,4.449c-0.025,0-0.051,0-0.076,0
	c-3.979,0-7.688-1.518-10.448-4.279l-45.7-45.7c-3.906-3.905-10.235-3.905-14.142,0c-3.905,3.905-3.905,10.236,0,14.141l45.7,45.701
	c6.77,6.77,15.67,10.149,24.593,10.149c9.003,0,18.028-3.443,24.906-10.32C515.366,487.986,515.442,465.782,501.841,452.182z
	 M20.007,195.988c0-97.041,78.948-175.989,175.989-175.989s175.989,78.948,175.989,175.989s-78.948,175.989-175.989,175.989
	S20.007,293.029,20.007,195.988z M344.726,366.12l-21.328-21.328c7.664-6.571,14.815-13.721,21.387-21.384l21.327,21.327
	L344.726,366.12z"/>
<path d="M329.905,123.725c-2.621-4.863-8.687-6.679-13.546-4.06c-4.862,2.62-6.68,8.684-4.061,13.546
	c27.409,50.868,17.985,114.962-22.918,155.864c-3.941,3.942-8.074,7.578-12.364,10.914v-17.362c0-2.652-1.054-5.196-2.929-7.071
	l-15.723-15.722c0.263-2.217,0.414-4.468,0.414-6.755v-13.54h31.133c5.522,0,9.999-4.477,9.999-9.999s-4.478-9.999-9.999-9.999
	h-31.388c-0.534-5.757-1.927-11.267-4.051-16.403l19.616-19.616c1.875-1.875,2.929-4.419,2.929-7.071v-27.274
	c0-5.523-4.478-9.999-9.999-9.999s-9.999,4.477-9.999,9.999v23.133l-13.634,13.634c-2.824-3.018-5.967-5.731-9.38-8.081v-8.018
	c0-11.114-4.783-21.132-12.395-28.107c7.501-6.903,12.21-16.793,12.21-27.765c0-5.523-4.478-9.999-9.999-9.999
	s-9.999,4.477-9.999,9.999c0,9.783-7.96,17.743-17.742,17.743c-9.783,0-17.743-7.96-17.743-17.743c0-5.523-4.478-9.999-9.999-9.999
	c-5.522,0-9.999,4.477-9.999,9.999c0,10.873,4.628,20.682,12.01,27.574c-7.735,6.984-12.604,17.082-12.604,28.298v8.309
	c-3.256,2.282-6.262,4.894-8.971,7.79l-13.633-13.634v-23.133c0-5.523-4.478-9.999-9.999-9.999s-9.999,4.477-9.999,9.999v27.274
	c0,2.652,1.054,5.196,2.929,7.071l19.615,19.616c-2.124,5.136-3.517,10.646-4.051,16.403h-31.388c-5.522,0-9.999,4.477-9.999,9.999
	s4.478,9.999,9.999,9.999h31.133v13.54c0,2.287,0.151,4.538,0.414,6.756l-15.723,15.723c-1.875,1.875-2.929,4.418-2.929,7.071
	v17.363c-4.292-3.338-8.423-6.974-12.365-10.915c-51.449-51.449-51.449-135.162,0-186.61
	C143.678,61.563,207.771,52.14,258.641,79.55c4.862,2.62,10.925,0.802,13.546-4.06c2.619-4.862,0.802-10.926-4.061-13.546
	c-28.175-15.182-61.239-21.103-93.097-16.668c-32.942,4.584-62.818,19.47-86.398,43.048c-59.245,59.246-59.245,155.647,0,214.893
	c29.623,29.622,68.534,44.434,107.445,44.433c38.912,0,77.823-14.812,107.446-44.434c23.579-23.579,38.465-53.454,43.048-86.396
	C351.005,184.961,345.086,151.899,329.905,123.725z M153.374,253.079v-28.233c0-18.948,14.32-34.606,32.704-36.742v45.471
	c0,5.523,4.478,9.999,9.999,9.999s9.999-4.477,9.999-9.999v-45.471c18.384,2.137,32.703,17.794,32.703,36.742v28.233
	c0,20.401-16.598,36.999-36.999,36.999h-11.408C169.972,290.077,153.374,273.48,153.374,253.079z M195.872,151.714
	c9.77,0,17.74,7.775,18.098,17.46c-3.93-0.86-8.005-1.326-12.188-1.326h-11.408c-4.332,0-8.545,0.502-12.603,1.422
	C178.078,159.539,186.07,151.714,195.872,151.714z M135.137,312.817v-26.046l5.646-5.646c9.804,17.269,28.353,28.952,49.591,28.952
	h11.408c21.238,0,39.786-11.683,49.591-28.952l5.646,5.646v26.045C218.955,332.603,173.199,332.603,135.137,312.817z"/>
<path d="M296.446,105.408c2.56,0,5.118-0.976,7.071-2.929l0.092-0.092c3.905-3.905,3.905-10.236,0-14.142
	c-3.906-3.905-10.235-3.905-14.142,0l-0.092,0.092c-3.905,3.905-3.905,10.236,0,14.142
	C291.328,104.432,293.887,105.408,296.446,105.408z"/>
<g>
</g>
<g>
</g>
<g>
</g>
<g>
</g>
<g>
</g>
<g>
</g>
<g>
</g>
<g>
</g>
<g>
</g>
<g>
</g>
<g>
</g>
<g>
</g>
<g>
</g>
<g>
</g>
<g>
</g>
</svg>
