<svg xmlns="http://www.w3.org/2000/svg" xmlns:xlink="http://www.w3.org/1999/xlink" version="1.1" id="Layer_1" x="0px" y="0px" viewBox="0 0 512 512" style="enable-background:new 0 0 512 512;" xml:space="preserve" width="512" height="512" class=""><g><rect x="12.281" y="104.74" style="fill:#434A54;" width="445.89" height="307.22" data-original="#434A54"></rect><rect x="8.781" y="60.43" style="fill:#E6E9ED;" width="443.5" height="53.641" data-original="#E6E9ED"></rect><path d="M32,85.336c0,5.891,4.781,10.672,10.672,10.672s10.656-4.781,10.656-10.672s-4.766-10.672-10.656-10.672  S32,79.445,32,85.336z" data-original="#000000" class=""></path><path d="M64,85.336c0,5.891,4.781,10.672,10.672,10.672s10.656-4.781,10.656-10.672s-4.766-10.672-10.656-10.672  S64,79.445,64,85.336z" data-original="#000000" class=""></path><path d="M96,85.336c0,5.891,4.781,10.672,10.672,10.672s10.656-4.781,10.656-10.672s-4.766-10.672-10.656-10.672  S96,79.445,96,85.336z" data-original="#000000" class=""></path><path style="fill:#FC6E51;" d="M53.328,160.008h320c5.891,0,10.672-4.781,10.672-10.672s-4.781-10.672-10.672-10.672h-320  c-5.891,0-10.656,4.781-10.656,10.672S47.438,160.008,53.328,160.008z" data-original="#FC6E51"></path><path style="fill:#AC92EB;" d="M53.328,202.664H224c5.891,0,10.672-4.766,10.672-10.656s-4.781-10.672-10.672-10.672H53.328  c-5.891,0-10.656,4.781-10.656,10.672S47.438,202.664,53.328,202.664z" data-original="#AC92EB"></path><path style="fill:#A0E557" d="M53.328,245.336h234.641c0.016,0,0.016,0,0.031,0c5.891,0,10.672-4.766,10.672-10.672  c0-5.875-4.781-10.656-10.672-10.656l0,0H53.328l0,0c-5.891,0-10.656,4.766-10.656,10.656  C42.672,240.57,47.438,245.336,53.328,245.336z" data-original="#48CFAD" class="active-path" data-old_color="#48CFAD"></path><path style="fill:#5D9CEC;" d="M53.328,288.008h149.344c5.891,0,10.656-4.781,10.656-10.688c0-5.875-4.766-10.656-10.656-10.656  H53.328c-5.891,0-10.656,4.781-10.656,10.656C42.672,283.227,47.438,288.008,53.328,288.008z" data-original="#5D9CEC" class=""></path><path style="fill:#FFCE54;" d="M224,309.32L224,309.32H53.328c-5.891,0-10.656,4.781-10.656,10.688  c0,5.875,4.766,10.656,10.656,10.656h170.641c0.016,0,0.016,0,0.031,0c5.891,0,10.672-4.781,10.672-10.656  C234.672,314.102,229.891,309.32,224,309.32z" data-original="#FFCE54"></path><g>
	<path style="fill:#ED5564" d="M138.672,352.008H53.328c-5.891,0-10.656,4.75-10.656,10.656s4.766,10.656,10.656,10.656h85.344   c5.891,0,10.656-4.75,10.656-10.656C149.328,356.789,144.562,352.008,138.672,352.008z" data-original="#ED5564" class=""></path>
	<polygon style="fill:#ED5564" points="447,277.352 401,258.352 361,258.352 330,277.336 309,344.695 330,422.008 389,452.023    434,426.008 458.172,330.664  " data-original="#ED5564" class=""></polygon>
</g><path d="M501.328,352.008h-32.281c0.156-3.531,0.219-7.094,0.219-10.688c0-3.25-0.078-6.438-0.234-9.531  c27.594-13.25,32-41,32.188-42.219l-0.016-0.031c0.078-0.5,0.125-1,0.125-1.531c0-5.906-4.766-10.688-10.656-10.688  c-5.359,0-9.781,3.969-10.547,9.125h-0.016c-0.016,0.125-1.719,10.812-10.781,19.5V74.664c0-11.781-9.547-21.328-21.328-21.328  H21.328C9.547,53.336,0,62.883,0,74.664v341.344h293.203c-13.078,13.5-15.625,29.5-15.75,30.438l0,0  c-0.062,0.5-0.125,1.031-0.125,1.562c0,5.875,4.781,10.656,10.672,10.656c5.359,0,9.781-3.969,10.547-9.125v0.031  c0.031-0.188,2.75-17.219,19.641-25.781c13.703,21.531,35.109,34.875,65.812,34.875s52.109-13.344,65.812-34.875  c16.578,8.438,19.516,25.094,19.641,25.844v-0.094l0,0c0.766,5.156,5.188,9.125,10.547,9.125c5.891,0,10.672-4.781,10.672-10.656  c0-0.531-0.062-1.062-0.125-1.562l0,0c-0.172-1.25-4.5-28.406-31.297-41.812c3.594-9.562,6.172-20.094,7.828-31.312h34.25  c5.891,0,10.672-4.75,10.672-10.656C512,356.789,507.219,352.008,501.328,352.008z M327.344,298.664  c2.547-5.906,5.766-10.969,9.641-15.188c4.438-4.844,9.922-8.625,16.422-11.375l0.297,0.5l2.922-1.75  c7.828-2.781,16.969-4.188,27.375-4.188c10.516,0,19.734,1.438,27.609,4.25l2.781,1.688l0.281-0.469  c6.469,2.75,11.922,6.531,16.359,11.344c3.859,4.219,7.078,9.281,9.625,15.188H327.344z M446.578,218.82v-0.016  c0.734-1.234,1.234-2.625,1.422-4.109v55.75c-6.188-7.125-13.641-12.688-22.281-16.781L446.578,218.82z M21.328,74.664h21.344h32h32  H448v21.344H106.672h-32h-32H21.328V74.664z M21.328,117.336H448v94.641c-0.672-5.25-5.141-9.312-10.578-9.312  c-3.875,0-7.266,2.094-9.141,5.203v-0.016l-23.5,39.25c-6.5-1.172-13.438-1.766-20.781-1.766c-7.312,0-14.219,0.594-20.703,1.766  l-23.469-39.234h-0.016c-1.859-3.109-5.266-5.203-9.141-5.203c-5.891,0-10.672,4.781-10.672,10.672c0,2,0.562,3.875,1.516,5.469  v0.016l20.844,34.812c-20.594,9.688-34.516,27.969-40.422,55.125c-11.703-8.875-13.984-21.75-14.094-22.406l0.016,0.094l0,0  c-0.766-5.156-5.188-9.125-10.547-9.125c-5.891,0-10.672,4.781-10.672,10.688c0,0.531,0.062,1.031,0.125,1.531v0.031  c0.172,1.219,4.594,29,32.203,42.25c-0.156,3.094-0.234,6.25-0.234,9.5c0,3.594,0.078,7.156,0.219,10.688h-32.281l0,0  c-5.891,0-10.672,4.781-10.672,10.656s4.781,10.656,10.672,10.656l0,0h34.266c1.078,7.438,2.578,14.594,4.531,21.344H21.328V117.336  z M336.453,412.727c-10.719-16.594-16.391-41.281-16.391-71.406c0-7.688,0.5-14.812,1.469-21.312h51.797V436.57  C357.391,434.258,345.266,426.383,336.453,412.727z M431.547,412.727c-8.812,13.656-20.938,21.531-36.875,23.844V320.008h51.797  c0.984,6.5,1.469,13.625,1.469,21.312C447.938,371.445,442.281,396.133,431.547,412.727z" data-original="#000000" class=""></path></g> </svg>