<?xml version="1.0" encoding="iso-8859-1"?>
<!-- Generator: Adobe Illustrator 19.0.0, SVG Export Plug-In . SVG Version: 6.00 Build 0)  -->
<svg version="1.1" id="Capa_1" xmlns="http://www.w3.org/2000/svg" xmlns:xlink="http://www.w3.org/1999/xlink" x="0px" y="0px"
	 viewBox="0 0 512 512" style="enable-background:new 0 0 512 512;" xml:space="preserve">
<circle style="fill:#FFEB99;" cx="256" cy="256" r="245.333"/>
<path style="fill:#78B9EB;" d="M128,149.333v192h42.667v64l42.667-64H384v-192H128z"/>
<path d="M256,512C114.615,512,0,397.385,0,256S114.615,0,256,0s256,114.615,256,256C511.835,397.317,397.317,511.835,256,512z
	 M256,21.333C126.397,21.333,21.333,126.397,21.333,256S126.397,490.667,256,490.667S490.667,385.603,490.667,256
	C490.52,126.458,385.542,21.48,256,21.333z"/>
<path d="M170.667,416c-5.891,0-10.667-4.776-10.667-10.667V352h-32c-5.891,0-10.667-4.776-10.667-10.667v-192
	c0-5.891,4.776-10.667,10.667-10.667h256c5.891,0,10.667,4.776,10.667,10.667v192c0,5.891-4.776,10.667-10.667,10.667H219.04
	l-39.467,59.253C177.588,414.229,174.244,416.011,170.667,416L170.667,416z M138.667,330.667h32c5.891,0,10.667,4.776,10.667,10.667
	v28.8l23.125-34.688c1.972-2.978,5.303-4.772,8.875-4.779h160V160H138.667V330.667z"/>
<path d="M181.333,192h149.333v21.333H181.333V192z"/>
<path d="M181.333,234.667h149.333V256H181.333V234.667z"/>
<path d="M181.333,277.333h149.333v21.333H181.333V277.333z"/>
<g>
</g>
<g>
</g>
<g>
</g>
<g>
</g>
<g>
</g>
<g>
</g>
<g>
</g>
<g>
</g>
<g>
</g>
<g>
</g>
<g>
</g>
<g>
</g>
<g>
</g>
<g>
</g>
<g>
</g>
</svg>
