<svg xmlns="http://www.w3.org/2000/svg" height="512pt" version="1.1" viewBox="0 0 512 512" width="512pt">
<g id="surface1">
<path d="M 284.96875 319.085938 L 222.632812 393 C 217.648438 398.910156 208 395.382812 208 387.652344 L 208 292.925781 " style=" stroke:none;fill-rule:nonzero;fill:rgb(30.196078%,72.941176%,96.470588%);fill-opacity:1;" />
<path d="M 487.898438 10.890625 L 33.171875 215.492188 C 24.890625 219.21875 25.464844 231.164062 34.0625 234.082031 L 488.789062 388.363281 C 495.273438 390.5625 502 385.742188 502 378.894531 L 502 20.011719 C 502 12.753906 494.515625 7.914062 487.898438 10.890625 Z M 487.898438 10.890625 " style=" stroke:none;fill-rule:nonzero;fill:rgb(78.823529%,95.294118%,100%);fill-opacity:1;" />
<path d="M 495.753906 10.742188 C 495.753906 10.742188 212.070312 294.476562 212.070312 294.476562 L 488.789062 388.363281 C 495.273438 390.5625 502 385.738281 502 378.890625 L 502 20.011719 C 502 15.671875 499.324219 12.195312 495.753906 10.738281 " style=" stroke:none;fill-rule:nonzero;fill:rgb(44.705882%,84.705882%,100%);fill-opacity:1;" />
<path d="M 198.613281 446.023438 C 193.609375 443.675781 187.65625 445.832031 185.316406 450.835938 C 173.597656 475.839844 148.191406 492 120.589844 492 C 96.898438 492 75.863281 480.40625 62.859375 462.59375 C 74.101562 450.058594 80.960938 433.511719 81 415.398438 C 81.058594 413.128906 80.898438 402.132812 73.023438 394.570312 C 69.441406 391.128906 62.960938 387.214844 52.441406 388.113281 C 36.445312 389.484375 29.15625 405.894531 29.15625 420.566406 C 29.15625 434.011719 32.070312 446.789062 37.308594 458.296875 C 29.40625 463.324219 20.035156 466.238281 10 466.238281 C 4.476562 466.238281 0 470.71875 0 476.238281 C 0 481.761719 4.476562 486.238281 10 486.238281 C 23.769531 486.238281 36.636719 482.300781 47.53125 475.488281 C 64.234375 497.644531 90.769531 512 120.589844 512 C 155.914062 512 188.429688 491.320312 203.425781 459.320312 C 205.769531 454.320312 203.613281 448.367188 198.613281 446.023438 Z M 61 415.242188 C 61 425.472656 57.972656 435.011719 52.765625 443.003906 C 50.425781 435.945312 49.15625 428.402344 49.15625 420.566406 C 49.15625 417.234375 50.695312 408.335938 54.148438 408.039062 C 54.566406 408.003906 55.019531 407.980469 55.480469 407.980469 C 56.863281 407.980469 58.316406 408.195312 59.140625 408.964844 C 60.570312 410.300781 61.015625 413.5 61.007812 414.835938 C 60.996094 415.019531 61 415.023438 61 415.242188 Z M 61 415.242188 " style=" stroke:none;fill-rule:nonzero;fill:rgb(0%,0%,0%);fill-opacity:1;" />
<path d="M 502.863281 3.214844 C 497.136719 -0.484375 490.011719 -1.023438 483.796875 1.769531 L 483.796875 1.773438 L 29.066406 206.375 C 21.523438 209.769531 16.902344 217.304688 17.296875 225.570312 C 17.695312 233.835938 23.011719 240.894531 30.847656 243.550781 L 198 300.261719 L 198 387.652344 C 198 395.421875 202.71875 402.167969 210.015625 404.835938 C 212.113281 405.601562 214.261719 405.972656 216.378906 405.972656 C 221.640625 405.972656 226.707031 403.683594 230.277344 399.445312 L 288.132812 330.84375 L 485.574219 397.832031 C 487.660156 398.542969 489.828125 398.890625 491.984375 398.890625 C 496.117188 398.890625 500.214844 397.613281 503.652344 395.152344 C 508.878906 391.402344 512 385.328125 512 378.894531 L 512 20.011719 C 512 13.195312 508.585938 6.917969 502.863281 3.214844 Z M 218 382.980469 L 218 307.046875 L 267.789062 323.941406 Z M 289.554688 310.207031 C 288.65625 309.742188 287.707031 309.425781 286.734375 309.25 L 230.511719 290.175781 L 307.679688 213.011719 C 311.582031 209.105469 311.582031 202.773438 307.679688 198.867188 C 303.773438 194.964844 297.441406 194.964844 293.535156 198.867188 L 209.394531 283.007812 L 37.273438 224.613281 L 456.355469 36.046875 L 358.535156 133.867188 C 354.632812 137.773438 354.632812 144.105469 358.535156 148.007812 C 360.488281 149.960938 363.046875 150.9375 365.605469 150.9375 C 368.164062 150.9375 370.726562 149.960938 372.679688 148.007812 L 492 28.6875 L 492 378.894531 Z M 289.554688 310.207031 " style=" stroke:none;fill-rule:nonzero;fill:rgb(0%,0%,0%);fill-opacity:1;" />
<path d="M 331.261719 165.257812 C 328.632812 165.257812 326.050781 166.328125 324.191406 168.1875 C 322.332031 170.046875 321.261719 172.628906 321.261719 175.257812 C 321.261719 177.898438 322.332031 180.46875 324.191406 182.328125 C 326.050781 184.1875 328.632812 185.257812 331.261719 185.257812 C 333.902344 185.257812 336.472656 184.1875 338.332031 182.328125 C 340.191406 180.46875 341.261719 177.886719 341.261719 175.257812 C 341.261719 172.628906 340.191406 170.058594 338.332031 168.1875 C 336.472656 166.328125 333.890625 165.257812 331.261719 165.257812 Z M 331.261719 165.257812 " style=" stroke:none;fill-rule:nonzero;fill:rgb(0%,0%,0%);fill-opacity:1;" />
</g>
</svg>